<svg width="42" height="42" viewBox="0 0 42 42" fill="none" xmlns="http://www.w3.org/2000/svg">
<path fill-rule="evenodd" clip-rule="evenodd" d="M21.0778 0.260498C9.52417 0.260498 0.155334 9.70461 0.155334 21.355C0.155334 30.6751 6.15027 38.5822 14.4634 41.3715C15.5091 41.5668 15.8929 40.9139 15.8929 40.3567C15.8929 39.8537 15.8735 38.192 15.8645 36.4294C10.0439 37.7054 8.81565 33.9405 8.81565 33.9405C7.8639 31.5023 6.49258 30.8539 6.49258 30.8539C4.59428 29.5447 6.63567 29.5716 6.63567 29.5716C8.73665 29.7204 9.84293 31.7454 9.84293 31.7454C11.709 34.9703 14.7375 34.038 15.9314 33.499C16.1192 32.1356 16.6614 31.205 17.2598 30.6782C12.6126 30.1448 7.72739 28.3361 7.72739 20.2533C7.72739 17.9502 8.54471 16.0684 9.88312 14.5912C9.66588 14.0599 8.94973 11.9144 10.0858 9.00877C10.0858 9.00877 11.8427 8.44183 15.841 11.171C17.5099 10.7036 19.2998 10.4693 21.0778 10.4612C22.8559 10.4693 24.6472 10.7036 26.3192 11.171C30.3126 8.44183 32.0671 9.00877 32.0671 9.00877C33.206 11.9144 32.4895 14.0599 32.2722 14.5912C33.6137 16.0684 34.4255 17.9502 34.4255 20.2533C34.4255 28.3553 29.531 30.1392 24.872 30.6615C25.6225 31.3161 26.2911 32.5998 26.2911 34.5679C26.2911 37.3903 26.2669 39.6619 26.2669 40.3567C26.2669 40.9181 26.6435 41.5758 27.704 41.3687C36.0127 38.5763 42 30.672 42 21.355C42 9.70461 32.6325 0.260498 21.0778 0.260498" fill="white"/>
<path fill-rule="evenodd" clip-rule="evenodd" d="M8.14144 30.4029C8.09545 30.5066 7.93222 30.5378 7.78352 30.4665C7.63205 30.3984 7.54697 30.2569 7.59608 30.1528C7.64104 30.0459 7.80461 30.0162 7.95574 30.0878C8.10755 30.1559 8.19401 30.2988 8.14144 30.4029" fill="white"/>
<path fill-rule="evenodd" clip-rule="evenodd" d="M8.98732 31.3464C8.88773 31.4387 8.69303 31.3958 8.56092 31.2499C8.42432 31.1042 8.39873 30.9095 8.49971 30.8158C8.60242 30.7234 8.79124 30.7667 8.92819 30.9123C9.06479 31.0596 9.09142 31.253 8.98732 31.3464" fill="white"/>
<path fill-rule="evenodd" clip-rule="evenodd" d="M9.81074 32.5493C9.68278 32.6382 9.47356 32.5548 9.34422 32.3691C9.21626 32.1833 9.21626 31.9606 9.34699 31.8714C9.47667 31.7821 9.68278 31.8624 9.81385 32.0467C9.94146 32.2356 9.94146 32.4583 9.81074 32.5493" fill="white"/>
<path fill-rule="evenodd" clip-rule="evenodd" d="M10.9388 33.7114C10.8243 33.8377 10.5805 33.8038 10.4021 33.6316C10.2195 33.4631 10.1687 33.2241 10.2835 33.0979C10.3993 32.9713 10.6445 33.0069 10.8243 33.1778C11.0055 33.3459 11.0609 33.5866 10.9388 33.7114" fill="white"/>
<path fill-rule="evenodd" clip-rule="evenodd" d="M12.495 34.3862C12.4445 34.5498 12.2097 34.6242 11.9731 34.5547C11.7369 34.4831 11.5824 34.2915 11.6301 34.1261C11.6792 33.9615 11.915 33.884 12.1533 33.9584C12.3892 34.0297 12.5441 34.2199 12.495 34.3862" fill="white"/>
<path fill-rule="evenodd" clip-rule="evenodd" d="M14.2041 34.5114C14.21 34.6836 14.0094 34.8265 13.7611 34.8296C13.5114 34.8351 13.3094 34.6957 13.3067 34.5263C13.3067 34.3523 13.5028 34.2108 13.7524 34.2067C14.0007 34.2018 14.2041 34.3402 14.2041 34.5114" fill="white"/>
<path fill-rule="evenodd" clip-rule="evenodd" d="M15.7945 34.2406C15.8242 34.4087 15.6517 34.5813 15.4051 34.6273C15.1627 34.6716 14.9382 34.5678 14.9075 34.4011C14.8774 34.2289 15.0531 34.0563 15.2951 34.0117C15.5421 33.9688 15.763 34.0698 15.7945 34.2406" fill="white"/>
</svg>
