<svg width="43" height="42" viewBox="0 0 43 42" fill="none" xmlns="http://www.w3.org/2000/svg">
<path fill-rule="evenodd" clip-rule="evenodd" d="M0.252441 21.0753C0.252441 9.52148 9.61864 0.155273 21.1724 0.155273C32.7262 0.155273 42.0924 9.52148 42.0924 21.0753C42.0924 32.6291 32.7262 41.9953 21.1724 41.9953C9.61864 41.9953 0.252441 32.6291 0.252441 21.0753Z" fill="#DC4E41"/>
<path fill-rule="evenodd" clip-rule="evenodd" d="M17.3688 22.7489V20.4776H23.6543C23.7114 20.8088 23.7589 21.1401 23.7589 21.5754C23.7589 25.3609 21.2105 28.0486 17.3688 28.0486C13.6888 28.0486 10.7125 25.0865 10.7125 21.424C10.7125 17.7615 13.6888 14.7993 17.3688 14.7993C19.166 14.7993 20.6685 15.4523 21.8286 16.5312L20.0219 18.2631C19.5274 17.7899 18.6621 17.241 17.3688 17.241C15.0962 17.241 13.2419 19.1148 13.2419 21.424C13.2419 23.7332 15.0962 25.607 17.3688 25.607C20.0028 25.607 20.9918 23.7237 21.1439 22.7489H17.3688ZM29.7306 20.4775H31.6324V22.3703H29.7306V24.2631H27.8288V22.3703H25.9269V20.4775H27.8288V18.5848H29.7306V20.4775Z" fill="white"/>
</svg>
