<svg width="43" height="43" viewBox="0 0 43 43" fill="none" xmlns="http://www.w3.org/2000/svg">
<path fill-rule="evenodd" clip-rule="evenodd" d="M0.941772 21.3471C0.941772 9.79333 10.308 0.427124 21.8618 0.427124C33.4156 0.427124 42.7818 9.79333 42.7818 21.3471C42.7818 32.9009 33.4156 42.2671 21.8618 42.2671C10.308 42.2671 0.941772 32.9009 0.941772 21.3471Z" fill="#0077B5"/>
<path fill-rule="evenodd" clip-rule="evenodd" d="M16.038 13.3475C16.0072 11.9509 15.0085 10.8871 13.3866 10.8871C11.7648 10.8871 10.7045 11.9509 10.7045 13.3475C10.7045 14.7153 11.7334 15.8097 13.3251 15.8097H13.3554C15.0085 15.8097 16.038 14.7153 16.038 13.3475ZM15.7257 17.7541H10.9848V31.9986H15.7257V17.7541ZM27.3647 17.4196C30.4845 17.4196 32.8233 19.4559 32.8233 23.8312L32.8231 31.9986H28.0824V24.3778C28.0824 22.4636 27.3963 21.1574 25.6801 21.1574C24.3703 21.1574 23.5902 22.038 23.2475 22.8885C23.1222 23.1933 23.0914 23.6179 23.0914 24.0437V31.999H18.3499C18.3499 31.999 18.4124 19.0911 18.3499 17.7545H23.0914V19.7721C23.7206 18.8022 24.8476 17.4196 27.3647 17.4196Z" fill="white"/>
</svg>
