<svg width="42" height="42" viewBox="0 0 42 42" fill="none" xmlns="http://www.w3.org/2000/svg">
<path fill-rule="evenodd" clip-rule="evenodd" d="M20.92 41.9953C32.4738 41.9953 41.84 32.6291 41.84 21.0753C41.84 9.52148 32.4738 0.155273 20.92 0.155273C9.3662 0.155273 0 9.52148 0 21.0753C0 32.6291 9.3662 41.9953 20.92 41.9953Z" fill="#25D366"/>
<path fill-rule="evenodd" clip-rule="evenodd" d="M21.6096 32.7142H21.6044C19.5225 32.7135 17.4768 32.1911 15.6598 31.2001L9.06537 32.9299L10.8302 26.4838C9.74155 24.5972 9.16873 22.4573 9.16966 20.2648C9.17239 13.4061 14.7528 7.82593 21.6095 7.82593C24.9372 7.82736 28.0606 9.12285 30.4092 11.4742C32.7578 13.8255 34.0505 16.9508 34.0492 20.2746C34.0464 27.1318 28.4682 32.7114 21.6096 32.7142V32.7142ZM15.9654 28.9481L16.3429 29.1722C17.9304 30.1142 19.7501 30.6127 21.6054 30.6134H21.6096C27.3083 30.6134 31.9465 25.9751 31.9488 20.274C31.9499 17.5112 30.8755 14.9136 28.9234 12.9592C26.9713 11.0048 24.3753 9.92803 21.6136 9.92707C15.9105 9.92707 11.2722 14.5649 11.27 20.2656C11.2692 22.2193 11.8158 24.1219 12.8508 25.768L13.0966 26.1592L12.0521 29.9746L15.9654 28.9481ZM27.8765 23.2328C27.7989 23.1032 27.5917 23.0254 27.2809 22.8697C26.97 22.7142 25.4419 21.9623 25.1569 21.8585C24.8721 21.7548 24.6648 21.703 24.4576 22.0141C24.2504 22.3252 23.6547 23.0254 23.4734 23.2328C23.2921 23.4402 23.1107 23.4662 22.8 23.3106C22.4892 23.155 21.4877 22.8268 20.3004 21.7679C19.3764 20.9436 18.7526 19.9258 18.5713 19.6146C18.39 19.3035 18.5519 19.1353 18.7076 18.9803C18.8474 18.841 19.0184 18.6172 19.1738 18.4357C19.3292 18.2543 19.381 18.1245 19.4846 17.9172C19.5882 17.7097 19.5364 17.5283 19.4587 17.3727C19.381 17.2171 18.7594 15.6871 18.5004 15.0648C18.248 14.4587 17.9918 14.5408 17.801 14.5312C17.6199 14.5221 17.4125 14.5202 17.2053 14.5202C16.9981 14.5202 16.6613 14.598 16.3764 14.9092C16.0915 15.2203 15.2886 15.9723 15.2886 17.5022C15.2886 19.0321 16.4023 20.5101 16.5578 20.7175C16.7132 20.9251 18.7495 24.0645 21.8676 25.4109C22.6091 25.7312 23.1881 25.9224 23.6395 26.0656C24.3841 26.3023 25.0618 26.2689 25.5972 26.1888C26.1945 26.0996 27.4362 25.437 27.6953 24.7109C27.9542 23.9847 27.9542 23.3624 27.8765 23.2328V23.2328Z" fill="#FDFDFD"/>
</svg>
